<?xml version="1.0" encoding="UTF-8"?>
<svg id="Layer_1" xmlns="http://www.w3.org/2000/svg" version="1.1" viewBox="0 0 512 512">
  <!-- Generator: Adobe Illustrator 29.3.1, SVG Export Plug-In . SVG Version: 2.1.0 Build 151)  -->
  <defs>
    <style>
      .st0 {
        fill: #fff;
      }
    </style>
  </defs>
  <path class="st0" d="M256,512c141.4,0,256-114.6,256-256S397.4,0,256,0,0,114.6,0,256s114.6,256,256,256ZM224,192v128c0,17.7-14.3,32-32,32s-32-14.3-32-32v-128c0-17.7,14.3-32,32-32s32,14.3,32,32ZM352,192v128c0,17.7-14.3,32-32,32s-32-14.3-32-32v-128c0-17.7,14.3-32,32-32s32,14.3,32,32Z"/>
</svg>