<?xml version="1.0" encoding="UTF-8"?>
<svg id="Layer_1" xmlns="http://www.w3.org/2000/svg" version="1.1" viewBox="0 0 512 512">
  <!-- Generator: Adobe Illustrator 29.3.1, SVG Export Plug-In . SVG Version: 2.1.0 Build 151)  -->
  <defs>
    <style>
      .st0 {
        fill: #fff;
      }
    </style>
  </defs>
  <path class="st0" d="M0,256C0,114.6,114.6,0,256,0s256,114.6,256,256-114.6,256-256,256S0,397.4,0,256ZM188.3,147.1c-7.6,4.2-12.3,12.3-12.3,20.9v176c0,8.7,4.7,16.7,12.3,20.9s16.8,4.1,24.3-.5l144-88c7.1-4.4,11.5-12.1,11.5-20.5s-4.4-16.1-11.5-20.5l-144-88c-7.4-4.5-16.7-4.7-24.3-.5v.2Z"/>
</svg>