<?xml version="1.0" encoding="UTF-8"?>
<svg id="Layer_1" xmlns="http://www.w3.org/2000/svg" version="1.1" viewBox="0 0 512 512">
  <!-- Generator: Adobe Illustrator 29.3.1, SVG Export Plug-In . SVG Version: 2.1.0 Build 151)  -->
  <defs>
    <style>
      .st0 {
        fill: #fff;
      }
    </style>
  </defs>
  <path class="st0" d="M52.5,440.6c-9.5,7.9-22.8,9.7-34.1,4.4S0,428.4,0,416V96c0-12.4,7.2-23.7,18.4-29,11.2-5.3,24.5-3.6,34.1,4.4l171.5,142.9v83.4L52.5,440.6ZM256,352V96c0-12.4,7.2-23.7,18.4-29s24.5-3.6,34.1,4.4l192,160c7.3,6.1,11.5,15.1,11.5,24.6s-4.2,18.5-11.5,24.6l-192,160c-9.5,7.9-22.8,9.7-34.1,4.4s-18.4-16.6-18.4-29v-64Z"/>
</svg>